<?xml version="1.0" encoding="UTF-8" standalone="no"?>
<svg
   version="1.1"
   x="0px"
   y="0px"
   viewBox="0 0 39.502411 56.429016"
   xml:space="preserve"
   id="svg2"
   sodipodi:docname="logo.svg"
   inkscape:version="1.4 (unknown)"
   width="39.502411"
   height="56.429016"
   xmlns:inkscape="http://www.inkscape.org/namespaces/inkscape"
   xmlns:sodipodi="http://sodipodi.sourceforge.net/DTD/sodipodi-0.dtd"
   xmlns="http://www.w3.org/2000/svg"
   xmlns:svg="http://www.w3.org/2000/svg"><defs
     id="defs2" /><sodipodi:namedview
     id="namedview2"
     pagecolor="#ffffff"
     bordercolor="#000000"
     borderopacity="0.25"
     inkscape:showpageshadow="2"
     inkscape:pageopacity="0.0"
     inkscape:pagecheckerboard="0"
     inkscape:deskcolor="#d1d1d1"
     inkscape:zoom="2.687037"
     inkscape:cx="28.6561"
     inkscape:cy="-74.431428"
     inkscape:window-width="2097"
     inkscape:window-height="1495"
     inkscape:window-x="0"
     inkscape:window-y="0"
     inkscape:window-maximized="0"
     inkscape:current-layer="svg2" /><path
     style="fill:#d5635b;stroke:none;stroke-width:2;stroke-linecap:round;stroke-linejoin:round;stroke-dasharray:none"
     d="M 9.1882059,13.466192 33.890135,13.332993 c 0.397628,-0.834502 -0.322144,-1.6298 -1.015606,-2.00389 -0.726783,-0.353976 -1.829178,-0.859935 -1.230137,-1.8616112 0.436256,-1.120432 -1.339403,-0.912481 -2.01356,-1.160999 -3.107062,-0.321929 -6.114657,0.833815 -8.964685,1.8304632 -1.61164,0.586024 -3.777023,0.886059 -5.436564,1.274428 -2.21244,0.596698 -3.825486,1.47079 -6.0413771,2.054808 z"
     id="path6"
     sodipodi:nodetypes="cccccccc" /><path
     id="path2"
     style="fill:#79b5ff;stroke:#4063d8;stroke-width:2.406;stroke-linecap:round;stroke-linejoin:round"
     d="M 37.621636,14.535993 3.5239794,14.582863 4.2681209,26.30552 c 0.477853,2.491313 2.797846,2.362174 3.308594,5.335937 l 1.9375,13.511719 a 5.8149552,5.8149552 0 0 1 1.0332031,-0.105469 5.8149552,5.8149552 0 0 1 5.814453,5.814453 5.8149552,5.8149552 0 0 1 -0.203125,1.494141 h 16.160156 c 1.283254,0 2.061672,-1.092513 2.208984,-2.208985 z" /><circle
     style="fill:#d3bdda;stroke:#9558b2;stroke-width:2.2;stroke-linecap:round;stroke-linejoin:round;stroke-dasharray:none"
     id="path4"
     cx="10.547569"
     cy="50.863132"
     r="4.4658856" /><circle
     style="fill:#9558b2;stroke:none;stroke-width:2.406;stroke-linecap:round;stroke-linejoin:round"
     id="path3"
     cx="10.547569"
     cy="50.863132"
     r="1.493304" /><path
     style="fill:none;stroke:#4063d8;stroke-width:2.2;stroke-linecap:round;stroke-linejoin:round;stroke-dasharray:none"
     d="m 14.129583,14.566192 v 5.152034"
     id="path5" /><path
     style="fill:none;stroke:#4063d8;stroke-width:2.2;stroke-linecap:round;stroke-linejoin:round;stroke-dasharray:none"
     d="m 22.160018,14.566192 v 5.152034"
     id="path5-8" /><g
     id="g6"
     transform="rotate(-15,27.44252,246.82491)"><g
       id="g8"
       transform="rotate(-15,82.410299,12.592965)"><path
         id="rect5"
         style="fill:#b0d5b5;stroke:#389826;stroke-width:2;stroke-linecap:round;stroke-linejoin:round;stroke-dasharray:none"
         d="m 75.205868,7.4424708 c -1.980152,-0.53058 -3.834496,0.017848 -4.294023,1.732826 L 68.283848,8.4711271 C 66.303696,7.940547 64.281018,9.1172053 63.821492,10.832182 l 35.567577,9.530304 c 0.459527,-1.714977 -0.703834,-3.745333 -2.683986,-4.275912 l -2.627997,-0.70417 c 0.459526,-1.714977 -0.872169,-3.117102 -2.85232,-3.647682 z" /><path
         style="fill:#d5635b;stroke:#389826;stroke-width:2;stroke-linecap:round;stroke-linejoin:round;stroke-dasharray:none"
         d="m 70.911845,9.1752967 3.228306,0.8650223"
         id="path7" /><path
         style="fill:#d5635b;stroke:#389826;stroke-width:2;stroke-linecap:round;stroke-linejoin:round;stroke-dasharray:none"
         d="M 94.077086,15.382404 78.874404,11.308858"
         id="path8" /></g></g><circle
     style="fill:#389826;stroke:#389826;stroke-width:1.2;stroke-linecap:round;stroke-linejoin:round;stroke-dasharray:none"
     id="path9"
     cx="2.552937"
     cy="14.06891"
     r="1.952937" /><path
     id="path10"
     style="fill:#da463c;stroke:#da463c;stroke-width:1.31447;stroke-linecap:round;stroke-linejoin:round;stroke-dasharray:none;stroke-opacity:1;fill-opacity:1"
     d="m 29.220107,37.179279 0.368656,2.533186 -2.307879,-1.114961 2.323251,3.681406 c -3.047343,3.771954 -10.26084,12.761109 -1.38364,12.761109 h 3.235059 c 8.630989,0 3.590104,-6.66181 -1.080037,-12.710153 l 2.455079,-3.561209 -2.066804,1.033889 0.260565,-2.560211 -0.424646,-0.111983 -0.766324,-0.0074 z"
     sodipodi:nodetypes="ccccscccccccc" /><rect
     style="fill:#eab1ad;stroke:none;stroke-width:0.87631;stroke-linecap:round;stroke-linejoin:round;stroke-dasharray:none"
     id="rect11"
     width="4.0348988"
     height="1.7753602"
     x="27.939028"
     y="41.615837"
     rx="0.88768011"
     ry="0.88768011" /></svg>
